<svg width="138" height="14" viewBox="0 0 138 14" fill="none" xmlns="http://www.w3.org/2000/svg">
<path d="M1.09673 2.50945C0.825808 2.45602 0.562871 2.63234 0.509447 2.90327C0.456022 3.17419 0.632341 3.43713 0.903267 3.49055L1.09673 2.50945ZM30.3085 8.77941L30.2117 9.26996L30.3085 8.77941ZM113.535 8.05372L113.64 8.54252L113.535 8.05372ZM137.42 3.27119C137.57 3.03919 137.503 2.72971 137.271 2.57993L133.491 0.139231C133.259 -0.0105422 132.949 0.0561128 132.799 0.28811C132.65 0.520106 132.716 0.829592 132.948 0.979366L136.309 3.14888L134.139 6.50942C133.989 6.74141 134.056 7.0509 134.288 7.20067C134.52 7.35045 134.83 7.28379 134.979 7.05179L137.42 3.27119ZM0.903267 3.49055L30.2117 9.26996L30.4052 8.28886L1.09673 2.50945L0.903267 3.49055ZM113.64 8.54252L137.105 3.48879L136.895 2.51121L113.43 7.56493L113.64 8.54252ZM30.2117 9.26996C57.7811 14.7064 86.17 14.4589 113.64 8.54252L113.43 7.56493C86.0924 13.4527 57.8411 13.699 30.4052 8.28886L30.2117 9.26996Z" fill="#FF6F00"/>
</svg>
