<svg width="12" height="12" viewBox="0 0 12 12" fill="none" xmlns="http://www.w3.org/2000/svg">
<path d="M6.00008 6.81666L7.69175 8.50833C7.79869 8.61528 7.9348 8.66875 8.10008 8.66875C8.26536 8.66875 8.40147 8.61528 8.50841 8.50833C8.61536 8.40139 8.66883 8.26528 8.66883 8.1C8.66883 7.93472 8.61536 7.79861 8.50841 7.69166L6.81675 6L8.50841 4.30833C8.61536 4.20139 8.66883 4.06528 8.66883 3.9C8.66883 3.73472 8.61536 3.59861 8.50841 3.49166C8.40147 3.38472 8.26536 3.33125 8.10008 3.33125C7.9348 3.33125 7.79869 3.38472 7.69175 3.49166L6.00008 5.18333L4.30841 3.49166C4.20147 3.38472 4.06536 3.33125 3.90008 3.33125C3.7348 3.33125 3.59869 3.38472 3.49175 3.49166C3.3848 3.59861 3.33133 3.73472 3.33133 3.9C3.33133 4.06528 3.3848 4.20139 3.49175 4.30833L5.18341 6L3.49175 7.69166C3.3848 7.79861 3.33133 7.93472 3.33133 8.1C3.33133 8.26528 3.3848 8.40139 3.49175 8.50833C3.59869 8.61528 3.7348 8.66875 3.90008 8.66875C4.06536 8.66875 4.20147 8.61528 4.30841 8.50833L6.00008 6.81666ZM6.00008 11.8333C5.19314 11.8333 4.4348 11.6802 3.72508 11.374C3.01536 11.0677 2.398 10.6521 1.873 10.1271C1.348 9.60208 0.932373 8.98472 0.626123 8.275C0.319873 7.56528 0.166748 6.80694 0.166748 6C0.166748 5.19305 0.319873 4.43472 0.626123 3.725C0.932373 3.01528 1.348 2.39791 1.873 1.87291C2.398 1.34791 3.01536 0.932289 3.72508 0.626039C4.4348 0.319789 5.19314 0.166664 6.00008 0.166664C6.80703 0.166664 7.56536 0.319789 8.27508 0.626039C8.9848 0.932289 9.60217 1.34791 10.1272 1.87291C10.6522 2.39791 11.0678 3.01528 11.374 3.725C11.6803 4.43472 11.8334 5.19305 11.8334 6C11.8334 6.80694 11.6803 7.56528 11.374 8.275C11.0678 8.98472 10.6522 9.60208 10.1272 10.1271C9.60217 10.6521 8.9848 11.0677 8.27508 11.374C7.56536 11.6802 6.80703 11.8333 6.00008 11.8333Z" fill="#E90B0B"/>
</svg>
