<svg width="24" height="24" viewBox="0 0 24 24" fill="none" xmlns="http://www.w3.org/2000/svg">
<g clip-path="url(#clip0_1404_1400)">
<path d="M11.9134 18.7943C12.9749 18.7943 13.8353 17.9255 13.8353 16.8538C13.8353 15.7821 12.9749 14.9133 11.9134 14.9133C10.8519 14.9133 9.99146 15.7821 9.99146 16.8538C9.99146 17.9255 10.8519 18.7943 11.9134 18.7943Z" fill="#EE7202"/>
<path d="M1.34035 13.0015C2.0806 13.0015 2.68069 12.3956 2.68069 11.6482C2.68069 10.9008 2.0806 10.2949 1.34035 10.2949C0.600093 10.2949 0 10.9008 0 11.6482C0 12.3956 0.600093 13.0015 1.34035 13.0015Z" fill="#FF6F00"/>
<path d="M7.1941 9.70766C7.93436 9.70766 8.53445 9.10177 8.53445 8.35436C8.53445 7.60695 7.93436 7.00106 7.1941 7.00106C6.45385 7.00106 5.85376 7.60695 5.85376 8.35436C5.85376 9.10177 6.45385 9.70766 7.1941 9.70766Z" fill="#FF6F00"/>
<path d="M11.7095 7.00107C12.3371 7.00107 12.8459 6.48734 12.8459 5.85363C12.8459 5.21992 12.3371 4.70619 11.7095 4.70619C11.0818 4.70619 10.573 5.21992 10.573 5.85363C10.573 6.48734 11.0818 7.00107 11.7095 7.00107Z" fill="#FF6F00"/>
<path d="M6.58256 2.97153C7.06529 2.97153 7.45663 2.57642 7.45663 2.08902C7.45663 1.60162 7.06529 1.2065 6.58256 1.2065C6.09983 1.2065 5.7085 1.60162 5.7085 2.08902C5.7085 2.57642 6.09983 2.97153 6.58256 2.97153Z" fill="#FF6F00"/>
<path d="M11.5924 1.47142C11.9949 1.47142 12.3211 1.14203 12.3211 0.73571C12.3211 0.329389 11.9949 0 11.5924 0C11.19 0 10.8638 0.329389 10.8638 0.73571C10.8638 1.14203 11.19 1.47142 11.5924 1.47142Z" fill="#FF6F00"/>
<path d="M2.47508 7.02974C3.10272 7.02974 3.61153 6.51601 3.61153 5.8823C3.61153 5.24859 3.10272 4.73486 2.47508 4.73486C1.84743 4.73486 1.33862 5.24859 1.33862 5.8823C1.33862 6.51601 1.84743 7.02974 2.47508 7.02974Z" fill="#FF6F00"/>
<path d="M2.68073 18.3236C3.74219 18.3236 4.60267 17.4548 4.60267 16.383C4.60267 15.3113 3.74219 14.4425 2.68073 14.4425C1.61927 14.4425 0.758789 15.3113 0.758789 16.383C0.758789 17.4548 1.61927 18.3236 2.68073 18.3236Z" fill="#FF6F00"/>
<path d="M20.7967 18.3236C21.8582 18.3236 22.7186 17.4548 22.7186 16.383C22.7186 15.3113 21.8582 14.4425 20.7967 14.4425C19.7352 14.4425 18.8748 15.3113 18.8748 16.383C18.8748 17.4548 19.7352 18.3236 20.7967 18.3236Z" fill="#FF6F00"/>
<path d="M6.69953 22.5286C7.76099 22.5286 8.62147 21.6598 8.62147 20.5881C8.62147 19.5164 7.76099 18.6476 6.69953 18.6476C5.63807 18.6476 4.77759 19.5164 4.77759 20.5881C4.77759 21.6598 5.63807 22.5286 6.69953 22.5286Z" fill="#FF6F00"/>
<path d="M16.9818 22.5286C18.0432 22.5286 18.9037 21.6598 18.9037 20.5881C18.9037 19.5164 18.0432 18.6476 16.9818 18.6476C15.9203 18.6476 15.0598 19.5164 15.0598 20.5881C15.0598 21.6598 15.9203 22.5286 16.9818 22.5286Z" fill="#FF6F00"/>
<path d="M16.3399 15.8819C17.4014 15.8819 18.2619 15.0131 18.2619 13.9414C18.2619 12.8696 17.4014 12.0008 16.3399 12.0008C15.2785 12.0008 14.418 12.8696 14.418 13.9414C14.418 15.0131 15.2785 15.8819 16.3399 15.8819Z" fill="#FF6F00"/>
<path d="M16.3399 10.2949C17.4014 10.2949 18.2619 9.42608 18.2619 8.35436C18.2619 7.28264 17.4014 6.41384 16.3399 6.41384C15.2785 6.41384 14.418 7.28264 14.418 8.35436C14.418 9.42608 15.2785 10.2949 16.3399 10.2949Z" fill="#FF6F00"/>
<path d="M22.0784 12.9998C23.1399 12.9998 24.0004 12.131 24.0004 11.0593C24.0004 9.98755 23.1399 9.11875 22.0784 9.11875C21.017 9.11875 20.1565 9.98755 20.1565 11.0593C20.1565 12.131 21.017 12.9998 22.0784 12.9998Z" fill="#FF6F00"/>
<path d="M20.7967 7.94093C21.8582 7.94093 22.7186 7.07213 22.7186 6.00042C22.7186 4.9287 21.8582 4.0599 20.7967 4.0599C19.7352 4.0599 18.8748 4.9287 18.8748 6.00042C18.8748 7.07213 19.7352 7.94093 20.7967 7.94093Z" fill="#FF6F00"/>
<path d="M16.9818 4.02954C18.0432 4.02954 18.9037 3.16074 18.9037 2.08902C18.9037 1.0173 18.0432 0.148499 16.9818 0.148499C15.9203 0.148499 15.0598 1.0173 15.0598 2.08902C15.0598 3.16074 15.9203 4.02954 16.9818 4.02954Z" fill="#FF6F00"/>
<path d="M7.19416 15.8819C8.25562 15.8819 9.1161 15.0131 9.1161 13.9414C9.1161 12.8696 8.25562 12.0008 7.19416 12.0008C6.1327 12.0008 5.27222 12.8696 5.27222 13.9414C5.27222 15.0131 6.1327 15.8819 7.19416 15.8819Z" fill="#FF6F00"/>
<path d="M11.9134 24C12.9749 24 13.8353 23.1312 13.8353 22.0595C13.8353 20.9878 12.9749 20.119 11.9134 20.119C10.8519 20.119 9.99146 20.9878 9.99146 22.0595C9.99146 23.1312 10.8519 24 11.9134 24Z" fill="#FF6F00"/>
<path d="M11.9134 13.5887C12.9749 13.5887 13.8353 12.7199 13.8353 11.6482C13.8353 10.5765 12.9749 9.70766 11.9134 9.70766C10.8519 9.70766 9.99146 10.5765 9.99146 11.6482C9.99146 12.7199 10.8519 13.5887 11.9134 13.5887Z" fill="#FF6F00"/>
</g>
<defs>
<clipPath id="clip0_1404_1400">
<rect width="24" height="24" fill="white"/>
</clipPath>
</defs>
</svg>
