<svg width="480" height="44" viewBox="0 0 480 44" fill="none" xmlns="http://www.w3.org/2000/svg">
<path d="M20.1722 19.9628L19.9968 23.4281H24.3041C24.3041 23.2586 24.3041 11.2809 24.3041 11.1302H11.6161V14.3506H20.0748C19.7239 17.1567 16.7615 20.057 12.4347 20.057C7.13337 20.057 4.48272 16.4976 4.48272 11.8835C4.48272 7.40131 7.67909 3.93606 12.4542 3.93606C16.1183 3.93606 18.4766 5.57452 19.3536 8.22995H24.2456C23.0762 2.44827 18.9443 0 12.4347 0C4.81405 0 0 4.63288 0 11.8835C0 19.1153 4.3268 23.767 11.9474 23.767C17.3851 23.767 19.4511 21.2246 19.9968 19.9628H20.1722Z" fill="#1C1C1C"/>
<path d="M31.186 0.342865V23.4319H41.048C48.3178 23.4319 51.4947 18.4224 51.4947 11.8874C51.4947 5.31474 48.3178 0.342865 41.048 0.342865H31.186ZM39.5473 4.65559C43.6012 4.65559 46.6417 6.18105 46.6417 11.8874C46.6417 17.6314 43.6402 19.0815 39.5863 19.0815H35.8247V4.65559H39.5473Z" fill="#1C1C1C"/>
<path d="M67.9015 15.6163C74.0408 15.6163 76.555 11.9816 76.555 7.76301C76.555 3.60095 74.3722 0.342865 67.9015 0.342865H58.4683V23.4319H63.0874V15.6163H67.9015ZM67.1024 4.24127C70.3767 4.24127 71.7215 5.48423 71.7215 7.89484C71.7215 10.3054 70.1038 11.7179 67.1413 11.7179H63.0874V4.24127H67.1024Z" fill="#1C1C1C"/>
<path d="M83.8071 23.4319H88.4263V15.2773H93.786L98.2493 23.4319H103.434L97.879 14.524C100.783 13.1492 102.069 10.0983 102.069 7.63118C102.069 2.97946 99.0679 0.342865 93.6691 0.342865H83.8071V23.4319ZM88.4263 11.5861V4.24127H93.1624C96.2418 4.24127 97.7425 5.44657 97.7425 7.72534C97.7425 10.1736 95.9689 11.5861 93.2013 11.5861H88.4263Z" fill="#1C1C1C"/>
<path d="M111.094 11.7503V15.2155H122.086V11.7503H111.094Z" fill="#1C1C1C"/>
<path d="M128.641 23.4319H146.318V19.0815H133.279V13.6765H145.227V9.57096H133.279V4.65559H146.318V0.342865H128.641V23.4319Z" fill="#1C1C1C"/>
<path d="M159.695 0.342865H154.764L162.501 11.4166V11.4919L153.965 23.4319H159.149L164.918 14.863H165.055L170.941 23.4319H175.95L159.695 0.342865ZM169.167 9.43913L175.209 0.342865H170.317L166.711 6.04922L169.167 9.43913Z" fill="#1C1C1C"/>
<path d="M183.204 0.342865V4.65559H202.187V0.342865H183.204ZM190.415 7.59351V23.4319H195.015V7.59351H190.415Z" fill="#1C1C1C"/>
<path d="M226.22 4.65559V0.342865H208.543V4.65559H226.22ZM226.22 13.9402V9.83462H208.543V13.9402H226.22ZM208.543 23.4319H226.22V19.0815H208.543V23.4319Z" fill="#1C1C1C"/>
<path d="M250.241 23.4319H254.744V0.342865H250.339V16.2378H250.163L238.625 0.342865H233.889L250.241 23.4319ZM234.084 23.4319H238.567V12.1134L234.084 5.95505V23.4319Z" fill="#1C1C1C"/>
<path d="M270.728 3.59707C273.827 3.59707 275.991 5.29203 275.991 7.92863H280.59C280.59 2.74959 276.809 0 270.689 0L270.728 3.59707ZM261.51 6.21484C261.51 14.6143 275.991 11.5822 275.991 17.0249C275.991 18.9082 273.964 20.1323 271.099 20.1323C267.785 20.1323 265.836 18.475 265.836 15.8008H261.178C261.178 21.2811 265.154 23.767 271.196 23.767C276.731 23.767 280.59 21.0928 280.59 17.0249C280.59 8.64427 265.992 11.1867 265.992 6.27134L261.51 6.21484Z" fill="#1C1C1C"/>
<path d="M291.142 3.90227V0.342865H286.502V3.90227H291.142ZM286.502 23.4319H291.122V6.93436H286.502V23.4319Z" fill="#1C1C1C"/>
<g clip-path="url(#clip0_1257_901)">
<g clip-path="url(#clip1_1257_901)">
<path d="M309.084 17.84C310.054 17.84 310.84 17.0804 310.84 16.1435C310.84 15.2066 310.054 14.4471 309.084 14.4471C308.114 14.4471 307.328 15.2066 307.328 16.1435C307.328 17.0804 308.114 17.84 309.084 17.84Z" fill="#FF6F00"/>
<path d="M299.424 12.7822C300.1 12.7822 300.649 12.2525 300.649 11.5991C300.649 10.9457 300.1 10.416 299.424 10.416C298.748 10.416 298.2 10.9457 298.2 11.5991C298.2 12.2525 298.748 12.7822 299.424 12.7822Z" fill="#FF6F00"/>
<path d="M304.774 9.89086C305.45 9.89086 305.998 9.36118 305.998 8.70779C305.998 8.0544 305.45 7.52472 304.774 7.52472C304.098 7.52472 303.549 8.0544 303.549 8.70779C303.549 9.36118 304.098 9.89086 304.774 9.89086Z" fill="#FF6F00"/>
<path d="M308.896 7.52928C309.469 7.52928 309.934 7.08017 309.934 6.52617C309.934 5.97218 309.469 5.52307 308.896 5.52307C308.322 5.52307 307.857 5.97218 307.857 6.52617C307.857 7.08017 308.322 7.52928 308.896 7.52928Z" fill="#FF6F00"/>
<path d="M304.212 4.008C304.653 4.008 305.011 3.66259 305.011 3.2365C305.011 2.81041 304.653 2.465 304.212 2.465C303.771 2.465 303.414 2.81041 303.414 3.2365C303.414 3.66259 303.771 4.008 304.212 4.008Z" fill="#FF6F00"/>
<path d="M308.791 2.6949C309.159 2.6949 309.457 2.40695 309.457 2.05174C309.457 1.69652 309.159 1.40857 308.791 1.40857C308.424 1.40857 308.126 1.69652 308.126 2.05174C308.126 2.40695 308.424 2.6949 308.791 2.6949Z" fill="#FF6F00"/>
<path d="M300.461 7.54783C301.034 7.54783 301.499 7.09873 301.499 6.54473C301.499 5.99073 301.034 5.54163 300.461 5.54163C299.887 5.54163 299.422 5.99073 299.422 6.54473C299.422 7.09873 299.887 7.54783 300.461 7.54783Z" fill="#FF6F00"/>
<path d="M300.647 17.4229C301.616 17.4229 302.402 16.6634 302.402 15.7265C302.402 14.7896 301.616 14.0301 300.647 14.0301C299.677 14.0301 298.891 14.7896 298.891 15.7265C298.891 16.6634 299.677 17.4229 300.647 17.4229Z" fill="#FF6F00"/>
<path d="M317.2 17.4229C318.17 17.4229 318.956 16.6634 318.956 15.7265C318.956 14.7896 318.17 14.0301 317.2 14.0301C316.23 14.0301 315.444 14.7896 315.444 15.7265C315.444 16.6634 316.23 17.4229 317.2 17.4229Z" fill="#FF6F00"/>
<path d="M304.322 21.1112C305.291 21.1112 306.077 20.3517 306.077 19.4147C306.077 18.4778 305.291 17.7183 304.322 17.7183C303.352 17.7183 302.566 18.4778 302.566 19.4147C302.566 20.3517 303.352 21.1112 304.322 21.1112Z" fill="#FF6F00"/>
<path d="M313.714 21.1112C314.683 21.1112 315.469 20.3517 315.469 19.4147C315.469 18.4778 314.683 17.7183 313.714 17.7183C312.744 17.7183 311.958 18.4778 311.958 19.4147C311.958 20.3517 312.744 21.1112 313.714 21.1112Z" fill="#FF6F00"/>
<path d="M313.126 15.2916C314.096 15.2916 314.882 14.532 314.882 13.5951C314.882 12.6582 314.096 11.8987 313.126 11.8987C312.157 11.8987 311.371 12.6582 311.371 13.5951C311.371 14.532 312.157 15.2916 313.126 15.2916Z" fill="#FF6F00"/>
<path d="M313.126 10.4079C314.096 10.4079 314.882 9.64838 314.882 8.71147C314.882 7.77456 314.096 7.01505 313.126 7.01505C312.157 7.01505 311.371 7.77456 311.371 8.71147C311.371 9.64838 312.157 10.4079 313.126 10.4079Z" fill="#FF6F00"/>
<path d="M318.37 12.771C319.339 12.771 320.126 12.0114 320.126 11.0745C320.126 10.1376 319.339 9.37811 318.37 9.37811C317.4 9.37811 316.614 10.1376 316.614 11.0745C316.614 12.0114 317.4 12.771 318.37 12.771Z" fill="#FF6F00"/>
<path d="M317.2 8.35064C318.17 8.35064 318.956 7.59113 318.956 6.65422C318.956 5.71731 318.17 4.95779 317.2 4.95779C316.23 4.95779 315.444 5.71731 315.444 6.65422C315.444 7.59113 316.23 8.35064 317.2 8.35064Z" fill="#FF6F00"/>
<path d="M313.714 4.93115C314.683 4.93115 315.469 4.17163 315.469 3.23472C315.469 2.29781 314.683 1.5383 313.714 1.5383C312.744 1.5383 311.958 2.29781 311.958 3.23472C311.958 4.17163 312.744 4.93115 313.714 4.93115Z" fill="#FF6F00"/>
<path d="M304.771 15.2916C305.741 15.2916 306.527 14.532 306.527 13.5951C306.527 12.6582 305.741 11.8987 304.771 11.8987C303.801 11.8987 303.015 12.6582 303.015 13.5951C303.015 14.532 303.801 15.2916 304.771 15.2916Z" fill="#FF6F00"/>
<path d="M309.084 22.3899C310.054 22.3899 310.84 21.6304 310.84 20.6935C310.84 19.7566 310.054 18.9971 309.084 18.9971C308.115 18.9971 307.328 19.7566 307.328 20.6935C307.328 21.6304 308.115 22.3899 309.084 22.3899Z" fill="#FF6F00"/>
<path d="M309.084 13.2899C310.054 13.2899 310.84 12.5304 310.84 11.5935C310.84 10.6566 310.054 9.89706 309.084 9.89706C308.114 9.89706 307.328 10.6566 307.328 11.5935C307.328 12.5304 308.114 13.2899 309.084 13.2899Z" fill="#FF6F00"/>
</g>
</g>
<path d="M343.796 23.4319H348.298V0.342865H343.893V16.2378H343.718L332.179 0.342865H327.443L343.796 23.4319ZM327.638 23.4319H332.121V12.1134L327.638 5.95505V23.4319Z" fill="#1C1C1C"/>
<path d="M364.278 3.59707C367.377 3.59707 369.54 5.29203 369.54 7.92863H374.14C374.14 2.74959 370.359 0 364.239 0L364.278 3.59707ZM355.059 6.21484C355.059 14.6143 369.54 11.5822 369.54 17.0249C369.54 18.9082 367.513 20.1323 364.648 20.1323C361.335 20.1323 359.386 18.475 359.386 15.8008H354.728C354.728 21.2811 358.704 23.767 364.746 23.767C370.281 23.767 374.14 21.0928 374.14 17.0249C374.14 8.64427 359.542 11.1867 359.542 6.27134L355.059 6.21484Z" fill="#1C1C1C"/>
<path d="M385.006 23.4319V19.6088H380.055V23.4319H385.006Z" fill="#1C1C1C"/>
<path d="M404.05 23.767C410.833 23.767 414.516 19.9063 415.315 15.1228H410.638C409.839 17.9854 407.422 19.8686 403.914 19.8686C399.236 19.8686 396.254 15.8761 396.254 11.5445C396.254 7.00582 399.567 3.93606 403.836 3.93606C407.909 3.93606 410.014 6.13951 410.696 8.8891H415.315C414.633 3.20158 410.014 0 403.524 0C396.254 0 391.752 5.31086 391.752 11.8835C391.752 18.4185 395.884 23.767 404.05 23.767Z" fill="#1C1C1C"/>
<path d="M435.329 0V4.23739C439.831 4.23739 443.242 6.74216 443.242 11.8835C443.242 17.0249 439.831 19.5673 435.329 19.5673C430.964 19.5673 427.572 17.0249 427.572 11.8835H422.934C422.934 19.5108 428.43 23.767 435.329 23.767C442.385 23.767 447.861 19.831 447.861 11.8835C447.861 4.29389 442.385 0 435.329 0Z" fill="#1C1C1C"/>
<path d="M465.188 20.4375H468.345L475.225 8.64815H475.381V23.4319H480V0.342865H475.322L467.059 15.089H466.922L458.736 0.342865H454.117L465.188 20.4375ZM454.117 23.4319H458.6V14.3545L454.117 6.23755V23.4319Z" fill="#1C1C1C"/>
<path d="M0 33.8587V43.8113H1.26036V39.8648H3.05637C3.60777 39.8648 4.09616 39.8019 4.55304 39.6762C5.00992 39.5504 5.38803 39.3617 5.71887 39.1101C6.03396 38.8586 6.28603 38.5284 6.47509 38.151C6.64839 37.7737 6.72716 37.3177 6.72716 36.7831C6.72716 36.2328 6.64839 35.7769 6.47509 35.3995C6.28603 35.0222 6.04972 34.7234 5.71887 34.5033C5.40378 34.2675 5.00992 34.1102 4.55304 34.0002C4.09616 33.9058 3.60777 33.8587 3.05637 33.8587H0ZM2.89882 38.8271H1.26036V34.8649H2.89882C3.76532 34.8649 4.41125 35.0064 4.83662 35.2895C5.26199 35.5725 5.4668 36.0599 5.4668 36.7831C5.4668 37.4907 5.26199 38.0095 4.83662 38.3397C4.42701 38.6699 3.78107 38.8271 2.89882 38.8271ZM10.0198 38.5756V34.8649H11.6898C12.4775 34.8649 13.0762 35.0064 13.4858 35.2737C13.8954 35.5253 14.116 35.997 14.116 36.6416C14.116 37.302 13.8954 37.7737 13.4858 38.1039C13.0762 38.4183 12.4775 38.5756 11.6898 38.5756H10.0198ZM14.2263 43.8113H15.6599L13.1392 39.4718C13.8167 39.2988 14.3523 38.9844 14.7619 38.5127C15.1716 38.0567 15.3764 37.4278 15.3764 36.6416C15.3764 36.1385 15.2818 35.6982 15.1085 35.3366C14.9352 34.9907 14.6989 34.7077 14.3838 34.4719C14.0845 34.2517 13.7064 34.0945 13.281 34.0002C12.8556 33.9058 12.383 33.8587 11.8789 33.8587H8.75949V43.8113H10.0198V39.6133H11.8316L14.2263 43.8113ZM17.5977 33.8587V43.8113H18.8581V33.8587H17.5977ZM20.2287 33.8587L23.4111 43.8113H24.8921L28.0587 33.8587H26.7668L25.1599 39.2202C24.9866 39.8177 24.8291 40.3837 24.6873 40.8868C24.5455 41.39 24.3879 41.9403 24.2146 42.522H24.1516C23.9468 41.9403 23.7893 41.39 23.6475 40.8868C23.5214 40.3837 23.3481 39.8177 23.1748 39.2202L21.5836 33.8587H20.2287ZM33.4467 39.7548H30.4534L30.926 38.2454C31.1151 37.6793 31.2884 37.129 31.4459 36.5787C31.6035 36.0284 31.761 35.4624 31.9186 34.8807H31.9816C32.1391 35.4624 32.2967 36.0284 32.47 36.5787C32.6275 37.129 32.8008 37.6793 32.9899 38.2454L33.4467 39.7548ZM33.7776 40.7768L34.7229 43.8113H36.062L32.6905 33.8587H31.2569L27.8854 43.8113H29.1773L30.1383 40.7768H33.7776ZM36.7552 38.8271C36.7552 39.6447 36.8655 40.368 37.086 41.0126C37.2908 41.6573 37.6059 42.1918 37.9998 42.6321C38.3779 43.0723 38.8505 43.4182 39.3704 43.6384C39.9061 43.8742 40.489 44 41.1192 44C41.7493 44 42.3165 43.8742 42.8207 43.6069C43.3248 43.3553 43.7659 43.0094 44.1598 42.5535L43.4508 41.783C43.12 42.129 42.7734 42.412 42.411 42.6006C42.0644 42.7893 41.6391 42.8837 41.1507 42.8837C40.678 42.8837 40.2369 42.7893 39.8588 42.6006C39.4807 42.412 39.1656 42.129 38.8978 41.783C38.63 41.4214 38.4252 40.9969 38.2834 40.4938C38.1416 39.9906 38.0628 39.4246 38.0628 38.7957C38.0628 38.1825 38.1416 37.6322 38.2834 37.129C38.4409 36.6416 38.6615 36.2171 38.9293 35.8712C39.1971 35.5096 39.528 35.2423 39.9218 35.0693C40.2999 34.8807 40.7253 34.7863 41.2137 34.7863C41.6391 34.7863 42.0014 34.8649 42.3323 35.0379C42.6474 35.1951 42.9309 35.431 43.1988 35.714L43.9235 34.8964C43.6241 34.5819 43.246 34.2989 42.7891 34.0473C42.3323 33.7958 41.7966 33.67 41.1979 33.67C40.552 33.67 39.9691 33.7958 39.4177 34.0316C38.882 34.2675 38.4094 34.6134 38.0155 35.0536C37.6217 35.4938 37.3066 36.0442 37.086 36.6731C36.8655 37.3177 36.7552 38.041 36.7552 38.8271ZM47.5155 39.9592V43.8113H48.7916V39.9592L51.8007 33.8587H50.4773L49.1855 36.6574C49.0437 37.0347 48.8861 37.3806 48.7128 37.7422C48.5395 38.0881 48.3662 38.4655 48.1929 38.8271H48.1299C47.9566 38.4655 47.7991 38.0881 47.6415 37.7422C47.484 37.3806 47.3264 37.0347 47.1689 36.6574L45.877 33.8587H44.5221L47.5155 39.9592ZM56.212 33.8587V43.8113H57.4881V39.8648H59.2683C59.8197 39.8648 60.3239 39.8019 60.765 39.6762C61.2219 39.5504 61.6157 39.3617 61.9308 39.1101C62.2617 38.8586 62.5137 38.5284 62.687 38.151C62.8603 37.7737 62.9549 37.3177 62.9549 36.7831C62.9549 36.2328 62.8603 35.7769 62.687 35.3995C62.5137 35.0222 62.2617 34.7234 61.9466 34.5033C61.6315 34.2675 61.2376 34.1102 60.7808 34.0002C60.3239 33.9058 59.8197 33.8587 59.2683 33.8587H56.212ZM59.1265 38.8271H57.4881V34.8649H59.1265C59.9773 34.8649 60.6232 35.0064 61.0486 35.2895C61.4739 35.5725 61.6945 36.0599 61.6945 36.7831C61.6945 37.4907 61.4897 38.0095 61.0643 38.3397C60.639 38.6699 59.993 38.8271 59.1265 38.8271ZM64.9714 33.8587V43.8113H66.2476V33.8587H64.9714ZM72.6596 44C73.2898 44 73.857 43.8742 74.3769 43.6226C74.9125 43.3868 75.3536 43.0409 75.7317 42.5849C76.1099 42.1447 76.4092 41.5944 76.614 40.9497C76.8188 40.3051 76.9291 39.5818 76.9291 38.7957C76.9291 37.9938 76.8188 37.2863 76.614 36.6574C76.4092 36.0284 76.1099 35.4938 75.7317 35.0536C75.3536 34.6134 74.9125 34.2675 74.3769 34.0316C73.857 33.7958 73.2898 33.67 72.6596 33.67C72.0294 33.67 71.4465 33.7958 70.9266 34.0159C70.4067 34.2517 69.9656 34.5976 69.5875 35.0379C69.2094 35.4781 68.9258 36.0127 68.7053 36.6416C68.5004 37.2705 68.4059 37.9938 68.4059 38.7957C68.4059 39.5818 68.5004 40.3051 68.7053 40.9497C68.9258 41.5944 69.2094 42.1447 69.5875 42.5849C69.9656 43.0409 70.4067 43.3868 70.9266 43.6226C71.4465 43.8742 72.0294 44 72.6596 44ZM72.6596 42.8837C72.2185 42.8837 71.8089 42.7893 71.4465 42.6006C71.0842 42.412 70.7848 42.129 70.517 41.7673C70.2649 41.4057 70.0601 40.9812 69.9184 40.478C69.7766 39.9749 69.7135 39.4089 69.7135 38.7957C69.7135 38.1668 69.7766 37.6165 69.9184 37.1133C70.0601 36.6259 70.2649 36.2014 70.517 35.8555C70.7848 35.5096 71.0842 35.2423 71.4465 35.0693C71.8089 34.8807 72.2185 34.7863 72.6596 34.7863C73.1008 34.7863 73.5104 34.8807 73.8727 35.0693C74.2193 35.2423 74.5344 35.5096 74.7865 35.8555C75.0543 36.2014 75.2591 36.6259 75.4009 37.1133C75.5427 37.6165 75.6057 38.1668 75.6057 38.7957C75.6057 39.4089 75.5427 39.9749 75.4009 40.478C75.2591 40.9812 75.0543 41.4057 74.7865 41.7673C74.5344 42.129 74.2193 42.412 73.8727 42.6006C73.5104 42.7893 73.1008 42.8837 72.6596 42.8837ZM79.0717 33.8587V43.8113H80.269V38.607C80.269 38.0724 80.2533 37.5536 80.2218 37.0347C80.1903 36.5158 80.143 35.997 80.1115 35.4938H80.1745L81.2458 37.5378L84.8693 43.8113H86.177V33.8587H84.9796V39.0001C84.9796 39.5189 84.9954 40.0535 85.0269 40.6038C85.0584 41.1384 85.0899 41.673 85.1214 42.1761H85.0584L83.9871 40.1007L80.3793 33.8587H79.0717ZM88.9182 33.8587V43.8113H94.8104V42.7264H90.1786V39.1259H93.9597V38.041H90.1786V34.9121H94.6686V33.8587H88.9182ZM96.9215 33.8587V43.8113H102.829V42.7264H98.1819V39.1259H101.979V38.041H98.1819V34.9121H102.672V33.8587H96.9215ZM106.201 38.5756V34.8649H107.871C108.659 34.8649 109.257 35.0064 109.667 35.2737C110.092 35.5253 110.297 35.997 110.297 36.6416C110.297 37.302 110.092 37.7737 109.667 38.1039C109.257 38.4183 108.659 38.5756 107.871 38.5756H106.201ZM110.423 43.8113H111.841L109.32 39.4718C109.998 39.2988 110.549 38.9844 110.943 38.5127C111.353 38.0567 111.557 37.4278 111.557 36.6416C111.557 36.1385 111.463 35.6982 111.305 35.3366C111.132 34.9907 110.88 34.7077 110.581 34.4719C110.266 34.2517 109.903 34.0945 109.462 34.0002C109.037 33.9058 108.564 33.8587 108.06 33.8587H104.941V43.8113H106.201V39.6133H108.013L110.423 43.8113ZM113.59 41.6415L112.834 42.522C113.275 42.978 113.795 43.3396 114.377 43.5912C114.976 43.8585 115.638 44 116.331 44C116.867 44 117.324 43.9214 117.749 43.7799C118.159 43.6226 118.521 43.4182 118.804 43.1667C119.104 42.9151 119.324 42.6006 119.482 42.2705C119.639 41.9246 119.718 41.5472 119.718 41.1541C119.718 40.7925 119.671 40.4623 119.561 40.195C119.45 39.912 119.309 39.6762 119.135 39.456C118.946 39.2516 118.726 39.0787 118.474 38.9215C118.222 38.7642 117.954 38.6227 117.67 38.4969L116.252 37.8995C116.047 37.8051 115.858 37.7265 115.669 37.6322C115.465 37.5378 115.291 37.4121 115.134 37.2863C114.96 37.1605 114.834 37.019 114.74 36.846C114.645 36.6888 114.598 36.4844 114.598 36.2328C114.598 35.7769 114.771 35.431 115.102 35.1637C115.449 34.9121 115.89 34.7863 116.457 34.7863C116.914 34.7863 117.339 34.8649 117.702 35.0379C118.08 35.1951 118.411 35.431 118.726 35.7297L119.403 34.8964C119.057 34.5347 118.615 34.236 118.111 34.0159C117.607 33.78 117.056 33.67 116.457 33.67C116 33.67 115.575 33.7329 115.197 33.8744C114.819 34.0002 114.488 34.1888 114.204 34.4247C113.936 34.6605 113.716 34.9435 113.558 35.2737C113.401 35.5882 113.322 35.9341 113.322 36.3114C113.322 36.6731 113.385 37.0033 113.511 37.2705C113.621 37.5536 113.779 37.7894 113.968 37.9938C114.173 38.1982 114.377 38.3712 114.63 38.5127C114.866 38.6542 115.118 38.78 115.338 38.8743L116.772 39.5032C117.008 39.6133 117.229 39.7233 117.434 39.8177C117.623 39.9277 117.812 40.0378 117.954 40.1636C118.096 40.2894 118.222 40.4466 118.3 40.6195C118.395 40.7925 118.426 41.0126 118.426 41.2642C118.426 41.7516 118.253 42.1447 117.875 42.4434C117.513 42.7421 117.008 42.8837 116.347 42.8837C115.827 42.8837 115.323 42.7736 114.85 42.5377C114.362 42.3176 113.952 42.0189 113.59 41.6415ZM124.76 33.8587V43.8113H126.02V33.8587H124.76ZM128.761 33.8587V43.8113H129.959V38.607C129.959 38.0724 129.943 37.5536 129.911 37.0347C129.864 36.5158 129.833 35.997 129.785 35.4938H129.848L130.935 37.5378L134.543 43.8113H135.851V33.8587H134.653V39.0001C134.653 39.5189 134.669 40.0535 134.716 40.6038C134.748 41.1384 134.78 41.673 134.811 42.1761H134.748L133.661 40.1007L130.069 33.8587H128.761ZM145.902 39.7548H142.909L143.381 38.2454C143.57 37.6793 143.744 37.129 143.901 36.5787C144.059 36.0284 144.216 35.4624 144.374 34.8807H144.437C144.595 35.4624 144.752 36.0284 144.925 36.5787C145.083 37.129 145.256 37.6793 145.445 38.2454L145.902 39.7548ZM146.233 40.7768L147.178 43.8113H148.517L145.146 33.8587H143.712L140.341 43.8113H141.633L142.594 40.7768H146.233ZM152.44 38.8271C152.44 39.6447 152.535 40.368 152.755 41.0126C152.976 41.6573 153.275 42.1918 153.669 42.6321C154.063 43.0723 154.52 43.4182 155.056 43.6384C155.591 43.8742 156.174 44 156.804 44C157.434 44 158.002 43.8742 158.506 43.6069C158.994 43.3553 159.451 43.0094 159.845 42.5535L159.12 41.783C158.805 42.129 158.458 42.412 158.096 42.6006C157.734 42.7893 157.308 42.8837 156.836 42.8837C156.347 42.8837 155.922 42.7893 155.544 42.6006C155.166 42.412 154.835 42.129 154.583 41.783C154.315 41.4214 154.11 40.9969 153.968 40.4938C153.811 39.9906 153.748 39.4246 153.748 38.7957C153.748 38.1825 153.811 37.6322 153.968 37.129C154.126 36.6416 154.331 36.2171 154.614 35.8712C154.882 35.5096 155.213 35.2423 155.591 35.0693C155.985 34.8807 156.41 34.7863 156.883 34.7863C157.308 34.7863 157.687 34.8649 158.002 35.0379C158.332 35.1951 158.616 35.431 158.884 35.714L159.593 34.8964C159.309 34.5819 158.931 34.2989 158.474 34.0473C158.017 33.7958 157.482 33.67 156.867 33.67C156.237 33.67 155.638 33.7958 155.103 34.0316C154.567 34.2675 154.094 34.6134 153.701 35.0536C153.307 35.4938 152.992 36.0442 152.771 36.6731C152.551 37.3177 152.44 38.041 152.44 38.8271ZM164.934 44C165.564 44 166.131 43.8742 166.667 43.6226C167.186 43.3868 167.628 43.0409 168.006 42.5849C168.4 42.1447 168.683 41.5944 168.888 40.9497C169.109 40.3051 169.203 39.5818 169.203 38.7957C169.203 37.9938 169.109 37.2863 168.888 36.6574C168.683 36.0284 168.4 35.4938 168.006 35.0536C167.628 34.6134 167.186 34.2675 166.667 34.0316C166.131 33.7958 165.564 33.67 164.934 33.67C164.303 33.67 163.736 33.7958 163.201 34.0159C162.681 34.2517 162.24 34.5976 161.861 35.0379C161.483 35.4781 161.2 36.0127 160.995 36.6416C160.774 37.2705 160.68 37.9938 160.68 38.7957C160.68 39.5818 160.774 40.3051 160.995 40.9497C161.2 41.5944 161.483 42.1447 161.861 42.5849C162.24 43.0409 162.681 43.3868 163.201 43.6226C163.736 43.8742 164.303 44 164.934 44ZM164.934 42.8837C164.492 42.8837 164.083 42.7893 163.72 42.6006C163.358 42.412 163.059 42.129 162.791 41.7673C162.539 41.4057 162.334 40.9812 162.192 40.478C162.05 39.9749 161.987 39.4089 161.987 38.7957C161.987 38.1668 162.05 37.6165 162.192 37.1133C162.334 36.6259 162.539 36.2014 162.791 35.8555C163.059 35.5096 163.358 35.2423 163.72 35.0693C164.083 34.8807 164.492 34.7863 164.934 34.7863C165.375 34.7863 165.784 34.8807 166.147 35.0693C166.509 35.2423 166.808 35.5096 167.076 35.8555C167.328 36.2014 167.533 36.6259 167.675 37.1133C167.817 37.6165 167.88 38.1668 167.88 38.7957C167.88 39.4089 167.817 39.9749 167.675 40.478C167.533 40.9812 167.328 41.4057 167.076 41.7673C166.808 42.129 166.509 42.412 166.147 42.6006C165.784 42.7893 165.375 42.8837 164.934 42.8837ZM171.346 33.8587V43.8113H172.559V38.607C172.559 38.0724 172.527 37.5536 172.496 37.0347C172.464 36.5158 172.433 35.997 172.385 35.4938H172.448L173.52 37.5378L177.143 43.8113H178.451V33.8587H177.254V39.0001C177.254 39.5189 177.269 40.0535 177.301 40.6038C177.332 41.1384 177.38 41.673 177.395 42.1761H177.348L176.261 40.1007L172.653 33.8587H171.346ZM181.192 33.8587V43.8113H182.39V38.607C182.39 38.0724 182.374 37.5536 182.342 37.0347C182.295 36.5158 182.263 35.997 182.216 35.4938H182.279L183.366 37.5378L186.99 43.8113H188.297V33.8587H187.084V39.0001C187.084 39.5189 187.1 40.0535 187.147 40.6038C187.179 41.1384 187.21 41.673 187.242 42.1761H187.179L186.108 40.1007L182.5 33.8587H181.192ZM191.023 33.8587V43.8113H196.931V42.7264H192.283V39.1259H196.08V38.041H192.283V34.9121H196.773V33.8587H191.023ZM198.459 38.8271C198.459 39.6447 198.569 40.368 198.79 41.0126C199.01 41.6573 199.31 42.1918 199.704 42.6321C200.098 43.0723 200.554 43.4182 201.09 43.6384C201.626 43.8742 202.193 44 202.823 44C203.469 44 204.036 43.8742 204.525 43.6069C205.029 43.3553 205.47 43.0094 205.864 42.5535L205.155 41.783C204.824 42.129 204.493 42.412 204.131 42.6006C203.768 42.7893 203.343 42.8837 202.855 42.8837C202.382 42.8837 201.957 42.7893 201.578 42.6006C201.2 42.412 200.87 42.129 200.602 41.783C200.35 41.4214 200.145 40.9969 199.987 40.4938C199.845 39.9906 199.767 39.4246 199.767 38.7957C199.767 38.1825 199.845 37.6322 200.003 37.129C200.161 36.6416 200.365 36.2171 200.633 35.8712C200.917 35.5096 201.248 35.2423 201.626 35.0693C202.02 34.8807 202.445 34.7863 202.918 34.7863C203.343 34.7863 203.721 34.8649 204.036 35.0379C204.351 35.1951 204.651 35.431 204.918 35.714L205.627 34.8964C205.328 34.5819 204.966 34.2989 204.509 34.0473C204.052 33.7958 203.516 33.67 202.902 33.67C202.272 33.67 201.673 33.7958 201.137 34.0316C200.586 34.2675 200.129 34.6134 199.719 35.0536C199.326 35.4938 199.026 36.0442 198.806 36.6731C198.569 37.3177 198.459 38.041 198.459 38.8271ZM209.519 34.9121V43.8113H210.795V34.9121H213.804V33.8587H206.51V34.9121H209.519ZM215.6 33.8587V43.8113H221.508V42.7264H216.86V39.1259H220.657V38.041H216.86V34.9121H221.35V33.8587H215.6ZM223.619 33.8587V43.8113H226.171C226.927 43.8113 227.589 43.7013 228.156 43.4654C228.739 43.2453 229.228 42.9151 229.621 42.4906C230.015 42.0503 230.315 41.5315 230.519 40.9026C230.724 40.2894 230.819 39.5818 230.819 38.7957C230.819 37.1919 230.425 35.9813 229.621 35.1322C228.818 34.2832 227.652 33.8587 226.108 33.8587H223.619ZM226.014 42.7736H224.879V34.8807H226.014C227.18 34.8807 228.062 35.2266 228.645 35.8869C229.228 36.563 229.511 37.5221 229.511 38.7957C229.511 40.0535 229.228 41.0283 228.645 41.7359C228.062 42.4277 227.18 42.7736 226.014 42.7736ZM235.025 33.8587L237.136 43.8113H238.649L240.114 37.8209C240.193 37.4278 240.287 37.0504 240.366 36.6888C240.461 36.3114 240.539 35.9341 240.618 35.5567H240.681C240.76 35.9341 240.839 36.3114 240.917 36.6888C240.996 37.0504 241.075 37.4278 241.169 37.8209L242.666 43.8113H244.194L246.258 33.8587H245.045L243.99 39.2674C243.895 39.8019 243.8 40.3365 243.706 40.8711C243.611 41.4057 243.517 41.9403 243.438 42.4906H243.375C243.249 41.9403 243.123 41.4057 243.013 40.8711C242.887 40.3365 242.761 39.8019 242.635 39.2674L241.264 33.8587H240.098L238.712 39.2674C238.601 39.8019 238.491 40.3365 238.365 40.8711C238.239 41.4057 238.129 41.9403 238.019 42.4906H237.956C237.861 41.9403 237.766 41.4057 237.672 40.8868C237.562 40.3523 237.467 39.8177 237.373 39.2674L236.333 33.8587H235.025ZM251.583 44C252.213 44 252.781 43.8742 253.316 43.6226C253.836 43.3868 254.277 43.0409 254.655 42.5849C255.049 42.1447 255.333 41.5944 255.538 40.9497C255.758 40.3051 255.853 39.5818 255.853 38.7957C255.853 37.9938 255.758 37.2863 255.538 36.6574C255.333 36.0284 255.049 35.4938 254.655 35.0536C254.277 34.6134 253.836 34.2675 253.316 34.0316C252.781 33.7958 252.213 33.67 251.583 33.67C250.953 33.67 250.386 33.7958 249.85 34.0159C249.33 34.2517 248.889 34.5976 248.511 35.0379C248.133 35.4781 247.849 36.0127 247.645 36.6416C247.424 37.2705 247.329 37.9938 247.329 38.7957C247.329 39.5818 247.424 40.3051 247.645 40.9497C247.849 41.5944 248.133 42.1447 248.511 42.5849C248.889 43.0409 249.33 43.3868 249.85 43.6226C250.386 43.8742 250.953 44 251.583 44ZM251.583 42.8837C251.142 42.8837 250.732 42.7893 250.37 42.6006C250.008 42.412 249.708 42.129 249.441 41.7673C249.188 41.4057 248.984 40.9812 248.842 40.478C248.7 39.9749 248.637 39.4089 248.637 38.7957C248.637 38.1668 248.7 37.6165 248.842 37.1133C248.984 36.6259 249.188 36.2014 249.441 35.8555C249.708 35.5096 250.008 35.2423 250.37 35.0693C250.732 34.8807 251.142 34.7863 251.583 34.7863C252.024 34.7863 252.434 34.8807 252.796 35.0693C253.159 35.2423 253.458 35.5096 253.726 35.8555C253.978 36.2014 254.183 36.6259 254.324 37.1133C254.466 37.6165 254.529 38.1668 254.529 38.7957C254.529 39.4089 254.466 39.9749 254.324 40.478C254.183 40.9812 253.978 41.4057 253.726 41.7673C253.458 42.129 253.159 42.412 252.796 42.6006C252.434 42.7893 252.024 42.8837 251.583 42.8837ZM259.256 38.5756V34.8649H260.941C261.713 34.8649 262.312 35.0064 262.737 35.2737C263.147 35.5253 263.352 35.997 263.352 36.6416C263.352 37.302 263.147 37.7737 262.737 38.1039C262.312 38.4183 261.713 38.5756 260.941 38.5756H259.256ZM263.478 43.8113H264.911L262.375 39.4718C263.052 39.2988 263.604 38.9844 264.013 38.5127C264.407 38.0567 264.612 37.4278 264.612 36.6416C264.612 36.1385 264.533 35.6982 264.36 35.3366C264.187 34.9907 263.95 34.7077 263.635 34.4719C263.32 34.2517 262.958 34.0945 262.517 34.0002C262.091 33.9058 261.619 33.8587 261.115 33.8587H257.995V43.8113H259.256V39.6133H261.067L263.478 43.8113ZM266.833 33.8587V43.8113H272.458V42.7264H268.094V33.8587H266.833ZM274.222 33.8587V43.8113H276.775C277.531 43.8113 278.192 43.7013 278.775 43.4654C279.358 43.2453 279.831 42.9151 280.241 42.4906C280.634 42.0503 280.934 41.5315 281.123 40.9026C281.328 40.2894 281.438 39.5818 281.438 38.7957C281.438 37.1919 281.028 35.9813 280.241 35.1322C279.437 34.2832 278.255 33.8587 276.727 33.8587H274.222ZM276.633 42.7736H275.483V34.8807H276.633C277.799 34.8807 278.665 35.2266 279.248 35.8869C279.831 36.563 280.13 37.5221 280.13 38.7957C280.13 40.0535 279.831 41.0283 279.248 41.7359C278.665 42.4277 277.799 42.7736 276.633 42.7736Z" fill="#FF6F00"/>
<defs>
<clipPath id="clip0_1257_901">
<rect width="21.8952" height="20.9521" fill="white" transform="translate(298.2 1.40857)"/>
</clipPath>
<clipPath id="clip1_1257_901">
<rect width="21.9255" height="20.9811" fill="white" transform="translate(298.2 1.40857)"/>
</clipPath>
</defs>
</svg>
