<svg width="24" height="24" viewBox="0 0 24 24" fill="none" xmlns="http://www.w3.org/2000/svg">
<path fill-rule="evenodd" clip-rule="evenodd" d="M20 7.82841C20 7.29799 19.7893 6.78927 19.4143 6.4142L15.5858 2.58576C15.2108 2.21069 14.702 1.99998 14.1716 1.99998H6C4.89543 1.99998 4 2.89541 4 3.99998V20C4 21.1046 4.89543 22 6 22H18C19.1046 22 20 21.1046 20 20V7.82841ZM12.9317 10.4142L14.4094 12.0001C14.7733 12.3906 15.3632 12.3906 15.7271 12.0001C16.091 11.6096 16.091 10.9764 15.7271 10.5859L12.6588 7.29287C12.2949 6.90238 11.7049 6.90238 11.3411 7.29287L8.27291 10.5857C7.90903 10.9762 7.90903 11.6094 8.27291 11.9999C8.63679 12.3904 9.22676 12.3904 9.59064 11.9999L11.0681 10.4142V16C11.0681 16.5523 11.4853 17 11.9999 17C12.5145 17 12.9317 16.5523 12.9317 16V10.4142Z" fill="#EE7202"/>
</svg>
